<?xml version="1.0" standalone="no"?><!DOCTYPE svg PUBLIC "-//W3C//DTD SVG 1.1//EN" "http://www.w3.org/Graphics/SVG/1.1/DTD/svg11.dtd"><svg t="1713942541353" class="icon" viewBox="0 0 1035 1024" version="1.1" xmlns="http://www.w3.org/2000/svg" p-id="8557" xmlns:xlink="http://www.w3.org/1999/xlink" width="202.1484375" height="200"><path d="M818.940864 1023.67608a204.735216 204.735216 0 0 1-99.808418-383.512932c-34.658747-92.862044-81.162889-164.59249-138.927468-215.995652-63.321677-56.302184-147.628715-95.274995-253.506069-116.406595a170.588307 170.588307 0 1 1 11.333556-102.075129c127.008954 24.129508 230.619597 71.218607 310.173853 141.925377 73.19284 65.076551 129.933742 154.13637 170.515187 266.521379A204.735216 204.735216 0 1 1 818.940864 1023.67608z m0.292479-89.206059c9.505564 0 17.329374-7.75069 17.329373-17.256254v-81.162889h81.162889a17.329374 17.329374 0 0 0 0-34.658747h-81.162889V720.302361a17.329374 17.329374 0 1 0-34.658747 0v81.16289h-81.162889a17.329374 17.329374 0 0 0 0 34.585627h81.162889v81.162889c0 9.505564 7.75069 17.329374 17.329374 17.329374z" p-id="8558"></path></svg>