<?xml version="1.0" standalone="no"?><!DOCTYPE svg PUBLIC "-//W3C//DTD SVG 1.1//EN" "http://www.w3.org/Graphics/SVG/1.1/DTD/svg11.dtd"><svg t="1716878702172" class="icon" viewBox="0 0 1024 1024" version="1.1" xmlns="http://www.w3.org/2000/svg" p-id="2347" xmlns:xlink="http://www.w3.org/1999/xlink" width="200" height="200"><path d="M429.8 890.7h-77.2v-38.2h77.2v38.2z m-154.4 0h-77.2v-38.2h77.2v38.2zM121 890.7H63.7v-57.2h38.2v19.1H121zM101.9 756.3H63.7v-77.2h38.2v77.2z m0-154.4H63.7v-77.2h38.2v77.2z m0-154.4H63.7v-77.2h38.2v77.2z m0-154.4H63.7v-77.2h38.2v77.2zM101.9 138.7H63.7V81.5H121v38.2h-19.1zM738.5 119.7h-77.2V81.5h77.2v38.2z m-154.4 0H507V81.5h77.2v38.2z m-154.3 0h-77.2V81.5h77.2v38.2z m-154.4 0h-77.2V81.5h77.2v38.2zM873 138.7h-38.2v-19h-19.1V81.5H873zM873 447.5h-38.2v-77.2H873v77.2z m0-154.4h-38.2v-77.2H873v77.2z" p-id="2348"></path><path d="M835.2 947.1c-0.8 0-1.5 0-2.3-0.1-4.7-0.6-9.1-3.1-12-6.8l-128.5-166-58.8 45.5c-4.8 3.7-11.2 4.8-17 2.8-5.8-2-10.1-6.8-11.6-12.7L523.1 476c-1.7-6.9 0.8-14.2 6.5-18.6 5.6-4.4 13.3-5 19.6-1.6L852 618.5c5.4 2.9 8.9 8.3 9.4 14.4s-2.1 12-6.9 15.7l-58.8 45.5 128.5 166c6.1 7.9 4.7 19.2-3.2 25.3l-74.7 57.9c-3.2 2.5-7.1 3.8-11.1 3.8zM695.7 730.8c5.4 0 10.7 2.4 14.3 7l128.5 166 46.2-35.8-128.5-166c-2.9-3.8-4.2-8.6-3.6-13.3s3.1-9.1 6.8-12l51.1-39.6-242.6-130.5 65.6 267.5 51.1-39.6c3.3-2.5 7.2-3.7 11.1-3.7z" p-id="2349"></path></svg>