<?xml version="1.0" standalone="no"?><!DOCTYPE svg PUBLIC "-//W3C//DTD SVG 1.1//EN" "http://www.w3.org/Graphics/SVG/1.1/DTD/svg11.dtd"><svg t="1716968004115" class="icon" viewBox="0 0 1024 1024" version="1.1" xmlns="http://www.w3.org/2000/svg" p-id="2628" xmlns:xlink="http://www.w3.org/1999/xlink" width="200" height="200"><path d="M529.442 28.574c38.611 0 70.244 31.57 71.463 71.295l10.026 330.872 51.895-255.92c7.882-38.884 44.349-64.316 82.371-57.422l4.33 0.778c38 6.915 63.833 43.635 58.326 82.981l-43.929 313.3 67.911-172.644c14.44-36.719 54.522-55.068 90.695-41.532l4.834 1.808c36.11 13.536 55.363 54.038 43.593 91.7l-133.11 425.75c-20.283 50.339-29.174 86.953-103.116 137.733s-292.577 61.018-395.023-32.893c-37.308-34.218-90.484-98.639-119.111-141.937L64.64 567.361c-24-33.062-18.769-79.681 11.938-106.227a73.27 73.27 0 0 1 103.137 6.873L303.472 606.56l-56.792-405.4c-5.507-39.347 20.3-76.087 58.326-82.981l4.33-0.778c38.022-6.915 74.49 18.517 82.371 57.422l51.853 255.92 10.068-330.872c1.2-39.725 32.832-71.294 71.443-71.294h4.393z" fill="#FFFFFF" p-id="2629"></path><path d="M522.112 0.001h4.371c53.7 0 97.074 42.943 98.757 97.764l2.877 94.958 4.987-24.6c10.607-52.329 60.779-88.516 114-78.864 57.052 10.371 92.4 60.284 84.827 114.412l-14.265 101.788a97.379 97.379 0 0 1 111.475-32.018c54.674 20.49 81.061 75.58 64.92 127.23L860.947 826.423l-5.995 15.351c-18.062 46.082-33.662 85.88-107.726 136.744-39.157 26.891-107.952 42.946-184.026 42.946-101.414 0-190.678-28.51-244.9-78.221-36.769-33.722-92.141-99.666-123.44-147.002L39.574 582.124c-32.242-44.41-25.136-107.192 16.188-142.915a100.574 100.574 0 0 1 141.5 9.5L261 520.067l-44.322-316.389c-7.581-54.165 27.778-104.079 80.5-113.638 10.153-1.837 15.97-2.349 21.705-2.349 46.548 0 87.188 33.827 96.631 80.44l4.975 24.555 2.888-94.916C425.03 42.95 468.401 0.001 522.112 0.001z m85.882 456.781q-1.162 0-2.337-0.1a27.307 27.307 0 0 1-24.979-26.381L570.652 99.43c-0.771-25.125-20.172-44.815-44.169-44.815h-4.371c-24 0-43.391 19.684-44.149 44.812l-10.068 330.878a27.307 27.307 0 0 1-54.057 4.592l-51.853-255.92c-4.829-23.834-27.121-40.271-50.723-35.979-28.121 5.092-44 28.076-40.5 53.108l56.792 405.4a27.307 27.307 0 0 1-47.407 21.978L156.391 484.931a45.963 45.963 0 0 0-64.84-4.47c-20.116 17.391-23.5 47.93-7.773 69.591l155.969 215.095c29.931 45.225 81.426 106.626 115.462 137.843 44.27 40.582 120.083 63.86 208 63.86 63.509 0 123.608-13.091 153.109-33.352 60.25-41.376 71.208-69.334 87.8-111.654l5.451-13.774 132.366-423.694c7.5-24-4.409-49.475-27.115-57.986-9.638-3.605-14.637-4.519-19.678-4.519-17.97 0-34.006 11.254-40.854 28.668l-67.911 172.648a27.307 27.307 0 0 1-52.454-13.787l43.929-313.3c3.5-25.009-12.389-48-36.173-52.324-6.866-1.238-9.4-1.464-11.913-1.463-20.689 0-38.83 15.423-43.137 36.667l-51.9 255.922a27.309 27.309 0 0 1-26.735 21.88z" fill="#121F3E" p-id="2630"></path></svg>