<?xml version="1.0" standalone="no"?><!DOCTYPE svg PUBLIC "-//W3C//DTD SVG 1.1//EN" "http://www.w3.org/Graphics/SVG/1.1/DTD/svg11.dtd"><svg t="1715330069215" class="icon" viewBox="0 0 1024 1024" version="1.1" xmlns="http://www.w3.org/2000/svg" p-id="13241" xmlns:xlink="http://www.w3.org/1999/xlink" width="200" height="200"><path d="M671.864988 511.745197H351.546611c-17.520025 0-31.722492 14.202467-31.722492 31.722492v0.515746c0 17.520025 14.202467 31.722492 31.722492 31.722492h320.318377c17.520025 0 31.722492-14.202467 31.722492-31.722492v-0.515746c0-17.520025-14.202467-31.722492-31.722492-31.722492zM479.725946 735.349881v128.437207c0 17.520025 14.202467 31.722492 31.722492 31.722493h0.515746c17.520025 0 31.722492-14.202467 31.722492-31.722493V735.349881c0-17.520025-14.202467-31.722492-31.722492-31.722492h-0.515746c-17.520025 0-31.722492 14.202467-31.722492 31.722492z" p-id="13242"></path><path d="M671.864988 831.54885H351.546611c-17.520025 0-31.722492 14.202467-31.722492 31.722492v0.515746c0 17.520025 14.202467 31.722492 31.722492 31.722493h320.318377c17.520025 0 31.722492-14.202467 31.722492-31.722493v-0.515746c0-17.520025-14.202467-31.722492-31.722492-31.722492zM735.825718 319.863005H287.585881c-17.520025 0-31.722492 14.202467-31.722492 31.722492v0.515746c0 17.520025 14.202467 31.722492 31.722492 31.722493h448.239837c17.520025 0 31.722492-14.202467 31.722492-31.722493v-0.515746c0-17.519002-14.202467-31.722492-31.722492-31.722492z" p-id="13243"></path><path d="M895.469672 127.981836H127.937834c-35.322483 0-63.956637 28.634154-63.956637 63.956638v511.693008c0 35.322483 28.634154 63.956637 63.956637 63.956637h767.531838c35.322483 0 63.956637-28.634154 63.956637-63.956637V191.938474c0-35.322483-28.634154-63.956637-63.956637-63.956638z m0 127.917368v447.725115-31.714306c0 17.520025-14.202467 31.722492-31.722493 31.722492H159.66442c-17.520025 0-31.722492-14.202467-31.722493-31.722492v31.714306V223.660966c0-17.520025 14.202467-31.722492 31.722493-31.722492h704.082759c17.520025 0 31.722492 14.202467 31.722493 31.722492v32.238238z" p-id="13244"></path></svg>