<?xml version="1.0" standalone="no"?><!DOCTYPE svg PUBLIC "-//W3C//DTD SVG 1.1//EN" "http://www.w3.org/Graphics/SVG/1.1/DTD/svg11.dtd"><svg t="1715329846202" class="icon" viewBox="0 0 1024 1024" version="1.1" xmlns="http://www.w3.org/2000/svg" p-id="4404" xmlns:xlink="http://www.w3.org/1999/xlink" width="200" height="200"><path d="M1011.712 563.2l-121.088-374.186667A51.2 51.2 0 0 0 841.898667 153.6H212.48a51.2 51.2 0 0 0-49.066667 36.437333L51.2 563.2z" fill="#B3D9FF" p-id="4405"></path><path d="M793.6 153.6l121.002667 390.314667 79.530666 17.322666-122.368-399.530666L793.6 153.6zM58.453333 609.109333L191.317333 588.8h666.453334l133.632 24.32a8.533333 8.533333 0 0 1 6.997333 8.533333V861.866667a8.533333 8.533333 0 0 1-8.533333 8.533333H59.733333a8.533333 8.533333 0 0 1-8.533333-8.533333V617.557333a8.533333 8.533333 0 0 1 7.253333-8.448z" fill="#96CAFF" p-id="4406"></path><path d="M137.386667 186.709333a36.864 36.864 0 0 1 25.6-7.509333h682.666666c14.506667 0 25.088 5.546667 25.6 8.021333l120.832 399.616h26.709334L896 179.968c-4.522667-15.274667-25.6-26.368-50.346667-26.368h-682.666666c-24.661333 0-45.824 11.093333-50.346667 26.368L0 591.445333h26.538667z m0 0a36.864 36.864 0 0 1 25.6-7.509333h682.666666c14.506667 0 25.088 5.546667 25.6 8.021333l120.832 399.616h26.709334L896 179.968c-4.522667-15.274667-25.6-26.368-50.346667-26.368h-682.666666c-24.661333 0-45.824 11.093333-50.346667 26.368L0 591.445333h26.538667zM128 640h25.6v179.2h-25.6zM230.4 640h25.6v179.2h-25.6zM332.8 640h25.6v179.2h-25.6z" fill="#175AA7" p-id="4407"></path><path d="M868.693333 870.4l108.373334-18.090667a25.6 25.6 0 0 0 21.418666-25.6v-220.16a25.6 25.6 0 0 0-21.418666-25.6L868.693333 563.2H156.074667L47.018667 581.376a25.6 25.6 0 0 0-21.418667 25.6v220.074667a25.6 25.6 0 0 0 21.418667 25.6L156.074667 870.4zM42.666667 556.117333L153.6 537.6h716.8l110.933333 18.432a51.2 51.2 0 0 1 42.666667 50.517333v220.501334a51.2 51.2 0 0 1-42.666667 50.517333L870.4 896H153.6l-110.933333-18.517333a51.2 51.2 0 0 1-42.666667-50.517334V606.549333a51.2 51.2 0 0 1 42.666667-50.432zM624.042667 346.112l4.266666 55.893333c-64-1.28-85.333333-17.066667-114.261333-62.293333L512 336.213333l2.304-3.413333c27.562667-40.874667 46.250667-54.528 104.618667-55.552l3.072 39.68L725.333333 258.901333 613.205333 204.8l2.816 36.949333c-61.952 1.194667-92.16 16.128-126.805333 63.573334-32.938667-37.461333-74.922667-51.797333-150.869333-52.394667H332.8l-5.461333 36.010667h7.424c71.424 0.597333 104.362667 12.117333 131.84 47.104-32.512 38.144-70.741333 51.2-148.053334 52.053333h-5.546666L307.2 429.312h7.424c85.930667-0.768 133.973333-17.493333 173.141333-61.269333C520.021333 418.133333 551.850667 442.282667 631.466667 443.733333l2.986666 38.741334 112.042667-70.826667z" fill="#175AA7" p-id="4408"></path><path d="M819.2 691.2a25.6 25.6 0 0 0-25.6 25.6v51.2a25.6 25.6 0 0 0 25.6 25.6h51.2a25.6 25.6 0 0 0 25.6-25.6v-51.2a25.6 25.6 0 0 0-25.6-25.6z m0-25.6h51.2a51.2 51.2 0 0 1 51.2 51.2v51.2a51.2 51.2 0 0 1-51.2 51.2h-51.2a51.2 51.2 0 0 1-51.2-51.2v-51.2a51.2 51.2 0 0 1 51.2-51.2z" fill="#175AA7" p-id="4409"></path></svg>