<?xml version="1.0" standalone="no"?>
<!DOCTYPE svg PUBLIC "-//W3C//DTD SVG 1.1//EN" "http://www.w3.org/Graphics/SVG/1.1/DTD/svg11.dtd"><svg t="1715329972257" class="icon" viewBox="0 0 1000 1024" version="1.1" xmlns="http://www.w3.org/2000/svg" p-id="8261" xmlns:xlink="http://www.w3.org/1999/xlink" width="238.28125" height="200">
<path d="M 1006.7627,438.61333 A 163.24267,163.24267 0 0 0 885.84533,427.648 a 160.85333,160.85333 0 0 0 -65.408,-102.4 L 807.552,315.09333 796.58667,327.46667 a 135.12533,135.12533 0 0 0 -25.6,97.45066 c 1.70666,23.63734 10.15466,46.37867 24.448,65.49334 -11.22134,6.272 -22.99734,11.52 -35.2,15.40266 a 233.38667,233.38667 0 0 1 -72.448,11.69067 H 3.754667 L 2.304,532.82133 a 285.48267,285.48267 0 0 0 24.106667,148.992 l 9.386666,18.51734 1.024,1.70666 c 64.213337,106.19734 192.554667,161.152 315.519997,161.152 238.16534,0 419.328,-113.70666 509.61067,-332.20266 60.33067,3.072 121.94133,-14.29334 151.552,-70.31467 l 7.5093,-14.29333 -14.2506,-7.97867 z m -803.66937,276.352 A 53.546667,53.546667 0 0 1 205.14133,608 53.333333,53.333333 0 0 1 258.048,661.504 54.229333,54.229333 0 0 1 203.09333,714.96533 Z" style="fill:#039bc5"></path><path d="m 203.09333,633.25867 a 28.16,28.16 0 1 0 28.928,28.24533 28.501333,28.501333 0 0 0 -8.704,-20.13867 27.946667,27.946667 0 0 0 -20.224,-8.10666 z" style="fill:#38504f"></path><path d="m 54.869333,387.88267 h 97.109337 v 97.152 H 54.912 V 387.84 m 129.49333,0 h 97.10934 v 97.152 h -97.152 V 387.84 m 0,-129.49333 H 281.472 v 97.152 h -97.10933 v -97.10934 m 129.57866,0 h 97.152 v 97.152 h -97.152 v -97.152 m 0,129.49334 h 97.152 v 97.152 h -97.152 V 387.84 m 129.49334,0 h 97.152 v 97.152 h -97.152 V 387.84 m 129.57866,0 h 97.152 v 97.152 h -97.152 V 387.84 M 443.43467,258.34667 h 97.152 v 97.152 h -97.152 v -97.10934 m 0,-129.57866 h 97.152 v 97.152 h -97.152 v -97.152" style="fill:#2bb558"></path>
</svg>