<?xml version="1.0" standalone="no"?>
<!DOCTYPE svg PUBLIC "-//W3C//DTD SVG 1.1//EN" "http://www.w3.org/Graphics/SVG/1.1/DTD/svg11.dtd">
<svg t="1715330003557" class="icon" viewBox="0 0 1024 1024" version="1.1" xmlns="http://www.w3.org/2000/svg" p-id="10110" xmlns:xlink="http://www.w3.org/1999/xlink" width="200" height="200">

<path d="m 973.70505,457.95556 c -9.82626,-86.10909 -43.70101,-167.56364 -97.74545,-235.57172 -12.54142,6.07677 -24.69495,12.15353 -36.7192,17.71313 3.23233,14.48081 6.46465,29.34949 9.30909,45.12323 10.73132,58.69899 18.61819,131.7495 17.71314,218.76364 36.71919,-13.83434 72.53333,-28.70303 107.44242,-46.02828 z M 224.32323,247.59596 c -2.84444,8.40404 -6.07677,17.19596 -8.79192,26.50505 -17.71313,59.08687 -30.25454,134.46465 -26.50505,227.55556 39.04647,15.38585 84.29899,30.25454 134.98182,41.8909 57.66465,13.05859 126.57778,22.75556 204.8,22.36768 V 310.9495 h -8.40404 c -101.49495,0 -202.47273,-21.46263 -296.08081,-63.35354 z M 550.14141,48.355556 V 289.87475 c 80.03233,-3.23233 168.98586,-20.94546 264.40405,-61.41414 -7.88687,-31.67677 -17.71314,-62.3192 -28.83233,-92.57374 C 716.41212,85.20404 635.34546,54.949495 550.14141,48.355556 Z M 52.622222,432.87273 c 21.850505,13.96363 61.414138,37.23636 115.846468,59.99192 -2.84445,-92.18586 10.21414,-167.04647 27.92727,-226.26263 2.84444,-9.82626 6.07677,-19.13535 9.30909,-27.92727 -20.42828,-9.82627 -37.23636,-19.52324 -49.77778,-27.02223 C 102.4,275.13535 66.973738,351.41818 52.622222,432.87273 Z" style="fill:#297aff"></path><path d="m 845.31717,511.09495 c 1.42222,-104.72727 -9.82626,-192.25859 -25.6,-262.46465 -96.8404,40.98586 -187.60404,58.69899 -269.05858,61.93132 v 255.09495 c 100.07272,-2.97374 199.2404,-21.59192 294.65858,-54.56162 z" style="fill:#297aff"></path><path d="M 845.70505,727.53131 C 882.94142,708.00808 918.75556,685.6404 952.7596,660.0404 969.0505,612.07273 976.93737,562.29495 976.93737,512 c 0,-10.73131 -0.51717,-21.46263 -1.42222,-32.06465 -37.23636,18.10101 -73.95555,33.09899 -110.28687,46.02829 -1.8101,67.49091 -8.27474,134.98181 -19.52323,201.56767 z M 169.50303,516.13737 C 128.12929,499.32929 88.048485,478.90101 49.389899,455.62828 41.890909,516.65455 46.545455,578.45657 62.836364,637.67273 107.05455,667.4101 153.08283,694.04444 201.56768,716.8 182.9495,642.84444 172.73535,576.25859 169.50303,516.13737 Z m 360.2101,283.5394 V 586.47273 h -3.23232 c -114.55354,0 -228.5899,-20.94546 -335.64445,-61.93132 4.13738,60.50909 14.86869,128.51718 35.42627,202.9899 35.81414,15.77374 74.9899,30.25455 117.26868,42.40808 60.50909,17.58384 122.82829,27.41011 186.18182,29.73738 z M 208.93737,742.4 C 162.00404,720.93737 116.88081,696.7596 73.050505,668.83232 108.86465,768.38788 177.26061,852.68687 267.11919,908.02424 244.36364,854.10909 224.8404,798.77172 208.93737,742.4 Z m 320.77576,76.8 c -65.16364,-1.8101 -129.8101,-11.63636 -192.25859,-29.73737 -35.42626,-10.21415 -69.81818,-22.36768 -103.30505,-36.33132 15.77374,53.52728 36.7192,111.19192 63.35354,171.70101 65.68081,34.90909 139.63636,52.62222 214.10909,52.62222 6.07677,0 12.15354,-0.51717 18.10101,-0.51717 z M 213.20404,219.28081 c 15.77374,-40.46869 34.39192,-74.9899 52.62222,-102.91717 -35.42626,21.8505 -67.49091,48.87272 -95.93535,79.12727 11.24848,6.98182 25.6,15.38586 43.31313,23.7899 z m 628.36364,532.94545 c -6.46465,35.42627 -13.96364,71.62829 -23.27273,109.89899 52.10505,-46.02828 93.60808,-102.91717 121.01818,-166.65858 -30.77172,20.81616 -63.35353,39.95151 -97.74545,56.75959 z" style="fill:#297aff"></path><path d="m 550.14141,585.95556 v 213.59191 c 95.41819,0 186.69899,-20.42828 272.80809,-61.02626 13.05858,-74.47272 19.52323,-142.86869 21.46262,-205.70505 -95.0303,32.71111 -194.19798,50.42424 -294.27071,53.1394 z" style="fill:#297aff"></path><path d="m 818.81212,762.82828 c -84.81616,37.23637 -175.96768,56.88889 -268.67071,56.88889 v 155.92727 c 87.53132,-6.98181 171.31314,-39.04646 241.5192,-92.18585 10.73131,-41.50303 20.0404,-81.97172 27.15151,-120.63031 z m 15.25657,-543.15959 c 9.30909,-4.13738 18.61818,-8.79192 27.92727,-13.44647 -13.96364,-16.29091 -29.34949,-31.15959 -45.12323,-45.12323 6.07677,17.58384 11.63636,37.23636 17.19596,58.5697 z m -602.24647,8.40404 c 93.60808,42.40808 194.97374,63.35353 297.37374,62.31919 V 47.062626 C 453.30101,43.830303 377.40606,59.60404 309.0101,92.70303 c -25.08283,31.54748 -53.91515,76.67071 -77.18788,135.3697 z" style="fill:#297aff"></path></svg>