<?xml version="1.0" standalone="no"?><!DOCTYPE svg PUBLIC "-//W3C//DTD SVG 1.1//EN" "http://www.w3.org/Graphics/SVG/1.1/DTD/svg11.dtd"><svg t="1715330508597" class="icon" viewBox="0 0 1024 1024" version="1.1" xmlns="http://www.w3.org/2000/svg" p-id="4397" xmlns:xlink="http://www.w3.org/1999/xlink" width="200" height="200"><path d="M260.003 305.524a516.236 516.236 0 0 0 93.603 41.356 513.815 513.815 0 0 0-26.764 141.847H187.345a324.19 324.19 0 0 1 72.658-183.203z m175.802-110.033a519.261 519.261 0 0 0-65.14 107.985 470.877 470.877 0 0 1-77.01-32.814 324.724 324.724 0 0 1 142.15-75.171z m294.516 75.17a469.178 469.178 0 0 1-77.009 32.815 519.261 519.261 0 0 0-65.14-107.985c53.876 12.94 102.4 39.191 142.15 75.17z m33.653 34.863a324.19 324.19 0 0 1 72.68 183.203h-139.45a512.977 512.977 0 0 0-26.81-141.847 516.236 516.236 0 0 0 93.603-41.356z m0 412.952a516.236 516.236 0 0 0-93.603-41.356 512.652 512.652 0 0 0 26.81-141.847h139.45a324.12 324.12 0 0 1-72.657 183.203zM653.312 720.5c26.81 8.681 52.55 19.712 77.033 32.815a324.608 324.608 0 0 1-142.173 75.17A518.656 518.656 0 0 0 653.335 720.5z m-164.585-21.69v120.32a469.364 469.364 0 0 1-72.331-110.708 467.55 467.55 0 0 1 72.331-9.612z m0-163.537v117.062a512.116 512.116 0 0 0-90.065 12.334 463.546 463.546 0 0 1-25.298-129.396h115.363z m-72.331-219.718a469.713 469.713 0 0 1 72.331-110.708v120.32a459.217 459.217 0 0 1-72.331-9.612z m72.331 56.087v117.085h-115.34c2.328-45.149 10.962-88.552 25.252-129.396 29.16 6.702 59.252 10.892 90.088 12.334z m46.546-46.475v-120.32a468.899 468.899 0 0 1 72.308 110.708c-23.505 5.027-47.64 8.332-72.308 9.612z m0 163.56V371.665a509.975 509.975 0 0 0 90.065-12.357 464.407 464.407 0 0 1 25.274 129.396h-115.34z m72.308 219.695a468.55 468.55 0 0 1-72.308 110.731v-120.32c24.669 1.304 48.803 4.585 72.308 9.589z m-72.308-56.087V535.273h115.34a464.407 464.407 0 0 1-25.275 129.396 512.14 512.14 0 0 0-90.065-12.334zM293.655 753.338a468.876 468.876 0 0 1 77.033-32.838 517.748 517.748 0 0 0 65.164 107.986 324.678 324.678 0 0 1-142.197-75.171z m-33.652-34.862a324.12 324.12 0 0 1-72.658-183.203H326.82c2.327 49.431 11.497 97.024 26.787 141.847a516.236 516.236 0 0 0-93.603 41.356z m543.465 24.855A370.572 370.572 0 0 0 884.364 512c0-104.518-43.195-198.819-112.524-266.473A370.967 370.967 0 0 0 512 139.637a370.967 370.967 0 0 0-259.84 105.89c-11.287 11.032-21.807 22.784-31.65 35.142A370.502 370.502 0 0 0 139.635 512c0 205.638 166.703 372.364 372.364 372.364a370.967 370.967 0 0 0 259.817-105.915h0.023a373.993 373.993 0 0 0 31.65-35.141z" fill="#21A3DD" p-id="4398"></path></svg>